<svg xmlns="http://www.w3.org/2000/svg" viewBox="0 0 20 20" fill="#2D9964"><path d="M16.25 5v1.25c0 1.381-2.797 2.5-6.25 2.5s-6.25-1.119-6.25-2.5V5c0-1.381 2.797-2.5 6.25-2.5s6.25 1.119 6.25 2.5M10 14.375c-2.784 0-4.744-.569-5.962-1.378-.188.237-.288.49-.288.753V15c0 1.381 2.797 2.5 6.25 2.5s6.25-1.119 6.25-2.5v-1.25c0-.262-.103-.516-.287-.753-1.22.806-3.179 1.378-5.963 1.378M10 10c-2.784 0-4.744-.569-5.962-1.378-.188.237-.288.49-.288.753v1.25c0 1.381 2.797 2.5 6.25 2.5s6.25-1.119 6.25-2.5v-1.25c0-.262-.103-.516-.287-.753C14.743 9.428 12.784 10 10 10" fill="#2D9964"></path></svg>