<svg xmlns="http://www.w3.org/2000/svg" viewBox="0 0 20 20" fill="#2E7CD1"><path d="M15.272 10c1.694-1.547 2.662-3.128 2.034-4.219-.628-1.09-2.484-1.04-4.672-.347-.49-2.24-1.378-3.871-2.637-3.871s-2.144 1.63-2.638 3.871c-2.184-.693-4.04-.743-4.671.347-.629 1.09.34 2.672 2.034 4.219-1.694 1.547-2.663 3.128-2.035 4.219.629 1.09 2.485 1.04 4.672.347.491 2.24 1.379 3.871 2.638 3.871 1.26 0 2.144-1.63 2.637-3.871 2.185.693 4.041.743 4.672-.347.628-1.09-.34-2.672-2.034-4.219m.412-3.281c.282.487-.409 1.36-1.562 2.318a23 23 0 0 0-1.09-.787 23 23 0 0 0-.135-1.338c1.41-.518 2.51-.68 2.79-.193zm-4.918 4.606q-.382.22-.766.425a26 26 0 0 1-1.519-.875q-.014-.437-.012-.875 0-.437.012-.875A30 30 0 0 1 10 8.25a26 26 0 0 1 1.519.875q.014.437.012.875 0 .437-.012.875a30 30 0 0 1-.753.45M10 3.438c.563 0 .972 1.03 1.228 2.512q-.61.253-1.228.553-.617-.3-1.228-.553c.253-1.481.665-2.512 1.228-2.512m-5.684 3.28c.28-.487 1.38-.324 2.79.194-.06.435-.103.885-.134 1.338q-.569.385-1.09.787c-1.157-.959-1.844-1.83-1.563-2.318zm0 6.563c-.282-.487.409-1.36 1.562-2.318.347.268.716.53 1.09.787.032.453.079.903.135 1.338-1.41.518-2.51.68-2.79.193zM10 16.562c-.562 0-.972-1.03-1.228-2.512q.61-.253 1.228-.553.617.3 1.228.553c-.253 1.481-.665 2.512-1.228 2.512m5.684-3.28c-.28.487-1.38.324-2.79-.194.06-.435.103-.885.134-1.338a21 21 0 0 0 1.09-.787c1.157.959 1.845 1.83 1.563 2.318z" fill="#2E7CD1"></path></svg>